<mxfile host="app.diagrams.net" modified="2023-02-14T12:38:39.066Z" agent="5.0 (Windows NT 10.0; Win64; x64) AppleWebKit/537.36 (KHTML, like Gecko) Chrome/97.0.4692.71 Safari/537.36" etag="2yjC9BGmdu69M1ZDRLWa" version="20.8.20" type="github">
  <diagram name="第 1 页" id="ARzHX-9ly3W4_VBs6L68">
    <mxGraphModel dx="2245" dy="740" grid="1" gridSize="10" guides="1" tooltips="1" connect="1" arrows="1" fold="1" page="1" pageScale="1" pageWidth="827" pageHeight="1169" math="0" shadow="0">
      <root>
        <mxCell id="0" />
        <mxCell id="1" parent="0" />
        <mxCell id="3sBMbdfUlUZQCqw2dq3I-1" value="&lt;font style=&quot;font-size: 24px;&quot;&gt;target&lt;/font&gt;" style="rounded=0;whiteSpace=wrap;html=1;fillColor=#60a917;fontColor=#ffffff;strokeColor=#2D7600;" vertex="1" parent="1">
          <mxGeometry x="70" y="430" width="920" height="40" as="geometry" />
        </mxCell>
        <mxCell id="3sBMbdfUlUZQCqw2dq3I-14" value="" style="rounded=0;whiteSpace=wrap;html=1;fontSize=24;fillColor=#f9f7ed;strokeColor=#36393d;" vertex="1" parent="1">
          <mxGeometry x="70" y="90" width="920" height="160" as="geometry" />
        </mxCell>
        <mxCell id="3sBMbdfUlUZQCqw2dq3I-7" value="" style="rounded=0;whiteSpace=wrap;html=1;fontSize=24;fillColor=#cdeb8b;strokeColor=#36393d;" vertex="1" parent="1">
          <mxGeometry x="100" y="140" width="430" height="100" as="geometry" />
        </mxCell>
        <mxCell id="3sBMbdfUlUZQCqw2dq3I-8" value="Advisor 1" style="text;html=1;strokeColor=none;fillColor=none;align=center;verticalAlign=middle;whiteSpace=wrap;rounded=0;fontSize=24;" vertex="1" parent="1">
          <mxGeometry x="110" y="150" width="110" height="30" as="geometry" />
        </mxCell>
        <mxCell id="3sBMbdfUlUZQCqw2dq3I-9" value="Advice 1" style="rounded=1;whiteSpace=wrap;html=1;fontSize=24;fillColor=#cce5ff;strokeColor=#36393d;" vertex="1" parent="1">
          <mxGeometry x="150" y="190" width="100" height="40" as="geometry" />
        </mxCell>
        <mxCell id="3sBMbdfUlUZQCqw2dq3I-10" value="Advice 2" style="rounded=1;whiteSpace=wrap;html=1;fontSize=24;fillColor=#cce5ff;strokeColor=#36393d;" vertex="1" parent="1">
          <mxGeometry x="270" y="190" width="100" height="40" as="geometry" />
        </mxCell>
        <mxCell id="3sBMbdfUlUZQCqw2dq3I-11" value="Advice 3" style="rounded=1;whiteSpace=wrap;html=1;fontSize=24;fillColor=#cce5ff;strokeColor=#36393d;" vertex="1" parent="1">
          <mxGeometry x="400" y="190" width="100" height="40" as="geometry" />
        </mxCell>
        <mxCell id="3sBMbdfUlUZQCqw2dq3I-13" value="Proxy Object" style="text;html=1;strokeColor=none;fillColor=none;align=center;verticalAlign=middle;whiteSpace=wrap;rounded=0;fontSize=24;" vertex="1" parent="1">
          <mxGeometry x="-30" width="180" height="40" as="geometry" />
        </mxCell>
        <mxCell id="3sBMbdfUlUZQCqw2dq3I-15" value="Advised 1" style="text;html=1;strokeColor=none;fillColor=none;align=center;verticalAlign=middle;whiteSpace=wrap;rounded=0;fontSize=24;" vertex="1" parent="1">
          <mxGeometry x="84" y="90" width="126" height="40" as="geometry" />
        </mxCell>
        <mxCell id="3sBMbdfUlUZQCqw2dq3I-2" value="" style="rounded=0;whiteSpace=wrap;html=1;fontSize=24;fillColor=#ffcc99;strokeColor=#36393d;" vertex="1" parent="1">
          <mxGeometry x="540" y="140" width="430" height="100" as="geometry" />
        </mxCell>
        <mxCell id="3sBMbdfUlUZQCqw2dq3I-3" value="Advisor 2" style="text;html=1;strokeColor=none;fillColor=none;align=center;verticalAlign=middle;whiteSpace=wrap;rounded=0;fontSize=24;" vertex="1" parent="1">
          <mxGeometry x="550" y="150" width="110" height="30" as="geometry" />
        </mxCell>
        <mxCell id="3sBMbdfUlUZQCqw2dq3I-4" value="Advice 1" style="rounded=1;whiteSpace=wrap;html=1;fontSize=24;fillColor=#b0e3e6;strokeColor=#0e8088;" vertex="1" parent="1">
          <mxGeometry x="590" y="190" width="100" height="40" as="geometry" />
        </mxCell>
        <mxCell id="3sBMbdfUlUZQCqw2dq3I-5" value="Advice 2" style="rounded=1;whiteSpace=wrap;html=1;fontSize=24;fillColor=#b0e3e6;strokeColor=#0e8088;" vertex="1" parent="1">
          <mxGeometry x="710" y="190" width="100" height="40" as="geometry" />
        </mxCell>
        <mxCell id="3sBMbdfUlUZQCqw2dq3I-6" value="Advice 3" style="rounded=1;whiteSpace=wrap;html=1;fontSize=24;fillColor=#b0e3e6;strokeColor=#0e8088;" vertex="1" parent="1">
          <mxGeometry x="840" y="190" width="100" height="40" as="geometry" />
        </mxCell>
        <mxCell id="3sBMbdfUlUZQCqw2dq3I-28" value="" style="rounded=0;whiteSpace=wrap;html=1;fontSize=24;fillColor=#f9f7ed;strokeColor=#36393d;" vertex="1" parent="1">
          <mxGeometry x="70" y="260" width="920" height="160" as="geometry" />
        </mxCell>
        <mxCell id="3sBMbdfUlUZQCqw2dq3I-29" value="" style="rounded=0;whiteSpace=wrap;html=1;fontSize=24;fillColor=#cdeb8b;strokeColor=#36393d;" vertex="1" parent="1">
          <mxGeometry x="100" y="310" width="430" height="100" as="geometry" />
        </mxCell>
        <mxCell id="3sBMbdfUlUZQCqw2dq3I-30" value="Advisor 1" style="text;html=1;strokeColor=none;fillColor=none;align=center;verticalAlign=middle;whiteSpace=wrap;rounded=0;fontSize=24;" vertex="1" parent="1">
          <mxGeometry x="110" y="320" width="110" height="30" as="geometry" />
        </mxCell>
        <mxCell id="3sBMbdfUlUZQCqw2dq3I-31" value="Advice 1" style="rounded=1;whiteSpace=wrap;html=1;fontSize=24;fillColor=#cce5ff;strokeColor=#36393d;" vertex="1" parent="1">
          <mxGeometry x="150" y="360" width="100" height="40" as="geometry" />
        </mxCell>
        <mxCell id="3sBMbdfUlUZQCqw2dq3I-32" value="Advice 2" style="rounded=1;whiteSpace=wrap;html=1;fontSize=24;fillColor=#cce5ff;strokeColor=#36393d;" vertex="1" parent="1">
          <mxGeometry x="270" y="360" width="100" height="40" as="geometry" />
        </mxCell>
        <mxCell id="3sBMbdfUlUZQCqw2dq3I-33" value="Advice 3" style="rounded=1;whiteSpace=wrap;html=1;fontSize=24;fillColor=#cce5ff;strokeColor=#36393d;" vertex="1" parent="1">
          <mxGeometry x="400" y="360" width="100" height="40" as="geometry" />
        </mxCell>
        <mxCell id="3sBMbdfUlUZQCqw2dq3I-34" value="Advised 2" style="text;html=1;strokeColor=none;fillColor=none;align=center;verticalAlign=middle;whiteSpace=wrap;rounded=0;fontSize=24;" vertex="1" parent="1">
          <mxGeometry x="84" y="260" width="146" height="40" as="geometry" />
        </mxCell>
        <mxCell id="3sBMbdfUlUZQCqw2dq3I-35" value="" style="rounded=0;whiteSpace=wrap;html=1;fontSize=24;fillColor=#ffcc99;strokeColor=#36393d;" vertex="1" parent="1">
          <mxGeometry x="540" y="310" width="430" height="100" as="geometry" />
        </mxCell>
        <mxCell id="3sBMbdfUlUZQCqw2dq3I-36" value="Advisor 2" style="text;html=1;strokeColor=none;fillColor=none;align=center;verticalAlign=middle;whiteSpace=wrap;rounded=0;fontSize=24;" vertex="1" parent="1">
          <mxGeometry x="550" y="320" width="110" height="30" as="geometry" />
        </mxCell>
        <mxCell id="3sBMbdfUlUZQCqw2dq3I-37" value="Advice 1" style="rounded=1;whiteSpace=wrap;html=1;fontSize=24;fillColor=#b0e3e6;strokeColor=#0e8088;" vertex="1" parent="1">
          <mxGeometry x="590" y="360" width="100" height="40" as="geometry" />
        </mxCell>
        <mxCell id="3sBMbdfUlUZQCqw2dq3I-38" value="Advice 2" style="rounded=1;whiteSpace=wrap;html=1;fontSize=24;fillColor=#b0e3e6;strokeColor=#0e8088;" vertex="1" parent="1">
          <mxGeometry x="710" y="360" width="100" height="40" as="geometry" />
        </mxCell>
        <mxCell id="3sBMbdfUlUZQCqw2dq3I-39" value="Advice 3" style="rounded=1;whiteSpace=wrap;html=1;fontSize=24;fillColor=#b0e3e6;strokeColor=#0e8088;" vertex="1" parent="1">
          <mxGeometry x="840" y="360" width="100" height="40" as="geometry" />
        </mxCell>
      </root>
    </mxGraphModel>
  </diagram>
</mxfile>
